<svg width="150" height="19" viewBox="0 0 150 19" fill="none" xmlns="http://www.w3.org/2000/svg">
<path d="M0.390753 18.4568L0.33783 1.00236L7.54802 0.980499C8.85484 0.976537 9.98339 1.20891 10.9337 1.67762C11.8896 2.14064 12.6275 2.80886 13.1472 3.68228C13.6668 4.55003 13.9285 5.58049 13.9321 6.77367C13.9358 7.98389 13.6747 9.0131 13.1488 9.86129C12.623 10.7038 11.8749 11.3481 10.9047 11.7942C9.93443 12.2347 8.78453 12.4569 7.45499 12.4609L2.89535 12.4748L2.88528 9.15092L6.66083 9.13948C7.29719 9.13755 7.82819 9.05355 8.25382 8.88749C8.68512 8.71572 9.01105 8.45905 9.2316 8.11747C9.45214 7.77021 9.56159 7.3267 9.55996 6.78693C9.55832 6.24715 9.44617 5.80147 9.22352 5.44987C9.00084 5.09259 8.67333 4.82654 8.24098 4.65171C7.80861 4.4712 7.27709 4.3819 6.64641 4.38382L4.56687 4.39012L4.60948 18.444L0.390753 18.4568ZM10.1932 10.4498L14.564 18.4139L9.96173 18.4278L5.6762 10.4635L10.1932 10.4498ZM18.6169 18.4016L14.0828 18.4153L19.919 0.94299L25.5355 0.925961L31.4776 18.3626L26.9435 18.3763L22.8045 5.33199L22.6682 5.3324L18.6169 18.4016ZM17.9909 11.5341L27.4682 11.5054L27.4779 14.7099L18.0006 14.7386L17.9909 11.5341ZM40.7754 6.11273C40.7166 5.48791 40.4623 5.00288 40.0124 4.65765C39.5682 4.30673 38.9341 4.13251 38.1103 4.13501C37.5648 4.13666 37.1105 4.20906 36.7473 4.35221C36.3841 4.49536 36.1119 4.69221 35.9309 4.94276C35.7498 5.18762 35.6569 5.46916 35.6522 5.78736C35.6416 6.04875 35.6934 6.27871 35.8077 6.47723C35.9276 6.67573 36.0986 6.85135 36.3207 7.00408C36.5484 7.15112 36.8215 7.28098 37.14 7.39365C37.4585 7.50632 37.8168 7.60466 38.2148 7.68868L39.7158 8.02504C40.58 8.20993 41.3421 8.45762 42.0022 8.76812C42.6679 9.0786 43.2258 9.44907 43.676 9.87952C44.1318 10.31 44.4771 10.8061 44.7118 11.3679C44.9464 11.9297 45.0676 12.56 45.0755 13.2588C45.0731 14.3611 44.7976 15.308 44.2488 16.0994C43.7001 16.8908 42.9093 17.4984 41.8765 17.9219C40.8494 18.3455 39.6085 18.5595 38.154 18.5639C36.6938 18.5683 35.4204 18.3535 34.3338 17.9192C33.2473 17.485 32.4015 16.8228 31.7966 15.9326C31.1916 15.0424 30.8785 13.9155 30.8573 12.5519L34.8971 12.5397C34.9329 13.1021 35.0849 13.5704 35.3531 13.9445C35.6212 14.3187 35.9886 14.6017 36.4551 14.7935C36.9272 14.9852 37.473 15.0802 38.0923 15.0783C38.6605 15.0766 39.1432 14.9984 39.5405 14.8438C39.9434 14.6892 40.2524 14.4752 40.4675 14.2018C40.6826 13.9284 40.7924 13.6156 40.797 13.2633C40.7904 12.9337 40.6872 12.6528 40.4877 12.4205C40.2881 12.1824 39.9806 11.9788 39.5653 11.8096C39.1557 11.6347 38.6325 11.4744 37.9957 11.3286L36.1706 10.908C34.6581 10.566 33.4661 10.0099 32.5945 9.23982C31.7228 8.46405 31.2878 7.41423 31.2894 6.09036C31.2805 5.01083 31.5674 4.06394 32.1502 3.24967C32.7329 2.4354 33.5407 1.79942 34.5734 1.34174C35.6061 0.884063 36.7844 0.653217 38.1082 0.649203C39.4605 0.645103 40.6345 0.871658 41.6302 1.32887C42.6315 1.78038 43.409 2.41723 43.9627 3.23942C44.5163 4.06161 44.8005 5.0153 44.8151 6.10048L40.7754 6.11273ZM45.1679 4.29259L45.1575 0.866467L59.9103 0.821736L59.9207 4.24786L54.6281 4.2639L54.6706 18.2922L50.5116 18.3049L50.469 4.27651L45.1679 4.29259ZM60.5836 18.2743L60.5307 0.819855L72.7011 0.782954L72.7115 4.20908L64.7598 4.23318L64.7706 7.81271L72.1002 7.79049L72.1106 11.2251L64.7811 11.2474L64.7919 14.8354L72.7436 14.8113L72.754 18.2374L60.5836 18.2743ZM73.956 18.2338L73.9031 0.77931L81.1133 0.757448C82.4201 0.753486 83.5487 0.985861 84.499 1.45457C85.4549 1.91759 86.1927 2.58581 86.7124 3.45923C87.2321 4.32698 87.4938 5.35744 87.4974 6.55062C87.5011 7.76084 87.24 8.79005 86.7141 9.63823C86.1883 10.4807 85.4402 11.1251 84.47 11.5712C83.4997 12.0116 82.3498 12.2339 81.0203 12.2379L76.4606 12.2517L76.4506 8.92787L80.2261 8.91643C80.8625 8.9145 81.3935 8.8305 81.8191 8.66444C82.2504 8.49267 82.5763 8.236 82.7969 7.89442C83.0174 7.54716 83.1269 7.10365 83.1252 6.56387C83.1236 6.0241 83.0115 5.57842 82.7888 5.22682C82.5661 4.86954 82.2386 4.60349 81.8063 4.42866C81.3739 4.24815 80.8424 4.15885 80.2117 4.16077L78.1322 4.16707L78.1748 18.221L73.956 18.2338ZM83.7585 10.2267L88.1293 18.1908L83.527 18.2048L79.2415 10.2404L83.7585 10.2267ZM92.0887 18.1788L92.0795 15.1447L98.4291 9.55158C98.905 9.11832 99.3101 8.7222 99.6442 8.36323C99.9784 7.99858 100.233 7.63417 100.408 7.27C100.583 6.90015 100.67 6.49932 100.669 6.0675C100.667 5.58455 100.561 5.17294 100.349 4.83267C100.138 4.48671 99.8476 4.22055 99.4777 4.03417C99.1078 3.84779 98.6842 3.75532 98.207 3.75677C97.724 3.75824 97.301 3.85895 96.938 4.05892C96.5749 4.2532 96.2917 4.53531 96.0883 4.90525C95.8905 5.27517 95.7925 5.72433 95.7941 6.25273L91.7969 6.26485C91.7933 5.07736 92.0573 4.05099 92.5887 3.18574C93.1202 2.32048 93.8682 1.65344 94.8327 1.1846C95.8028 0.710069 96.93 0.470855 98.214 0.466961C99.5379 0.462947 100.689 0.681049 101.668 1.12127C102.646 1.56148 103.404 2.17851 103.94 2.97234C104.483 3.76047 104.755 4.67726 104.758 5.72271C104.76 6.38748 104.629 7.04697 104.364 7.70119C104.099 8.3554 103.621 9.07845 102.93 9.87032C102.245 10.6622 101.271 11.6112 100.007 12.7173L97.9247 14.6497L97.925 14.7605L104.999 14.7391L105.009 18.1396L92.0887 18.1788ZM113.173 18.541C111.651 18.5456 110.337 18.1888 109.233 17.4706C108.128 16.7466 107.276 15.7066 106.675 14.3505C106.074 12.9886 105.774 11.3503 105.774 9.43556C105.773 7.52078 106.067 5.89488 106.654 4.55787C107.246 3.21516 108.09 2.19271 109.184 1.49052C110.284 0.782639 111.596 0.426388 113.118 0.421771C114.641 0.417154 115.955 0.765446 117.059 1.46665C118.169 2.16215 119.025 3.17944 119.625 4.51854C120.226 5.85763 120.526 7.48173 120.526 9.39083C120.532 11.3113 120.239 12.9542 119.646 14.3197C119.054 15.6851 118.208 16.7303 117.108 17.4552C116.013 18.1744 114.702 18.5364 113.173 18.541ZM113.163 15.0893C114.072 15.0866 114.806 14.6213 115.366 13.6934C115.926 12.7599 116.2 11.3301 116.188 9.40398C116.184 8.14262 116.053 7.10324 115.795 6.28584C115.537 5.46276 115.18 4.8502 114.724 4.44817C114.269 4.04614 113.737 3.84605 113.129 3.84789C112.225 3.85063 111.497 4.31023 110.943 5.22669C110.389 6.13746 110.112 7.53603 110.112 9.42241C110.11 10.7008 110.235 11.7601 110.488 12.6003C110.746 13.4404 111.106 14.0671 111.567 14.4805C112.029 14.8882 112.561 15.0911 113.163 15.0893ZM121.529 18.0895L121.52 15.0555L127.869 9.46232C128.345 9.02905 128.75 8.63294 129.084 8.27397C129.419 7.90932 129.673 7.54491 129.848 7.18074C130.023 6.81089 130.11 6.41005 130.109 5.97824C130.107 5.49528 130.001 5.08367 129.79 4.7434C129.578 4.39745 129.288 4.13129 128.918 3.94491C128.548 3.75853 128.124 3.66606 127.647 3.66751C127.164 3.66897 126.741 3.76969 126.378 3.96965C126.015 4.16394 125.732 4.44605 125.528 4.81598C125.331 5.1859 125.233 5.63507 125.234 6.16347L121.237 6.17559C121.234 4.9881 121.497 3.96172 122.029 3.09647C122.56 2.23122 123.308 1.56418 124.273 1.09534C125.243 0.620806 126.37 0.381592 127.654 0.377698C128.978 0.373685 130.129 0.591786 131.108 1.032C132.087 1.47222 132.844 2.08924 133.381 2.88307C133.923 3.67121 134.195 4.588 134.199 5.63345C134.201 6.29822 134.069 6.95771 133.804 7.61193C133.539 8.26614 133.061 8.98919 132.37 9.78106C131.685 10.5729 130.711 11.5219 129.447 12.628L127.365 14.5605L127.365 14.6713L134.439 14.6498L134.449 18.0504L121.529 18.0895ZM142.033 18.266C140.704 18.27 139.524 18.0463 138.494 17.5949C137.47 17.1378 136.662 16.5067 136.068 15.7017C135.475 14.8967 135.171 13.9686 135.156 12.9175L139.401 12.9046C139.419 13.2853 139.542 13.623 139.77 13.9177C139.998 14.2068 140.309 14.4331 140.701 14.5967C141.094 14.7603 141.54 14.8413 142.04 14.8398C142.54 14.8383 142.98 14.7489 143.36 14.5716C143.746 14.3886 144.047 14.1406 144.261 13.8274C144.476 13.5086 144.58 13.1446 144.573 12.7355C144.578 12.3264 144.46 11.9632 144.221 11.6457C143.981 11.3282 143.642 11.0821 143.204 10.9073C142.772 10.7325 142.26 10.646 141.669 10.6478L139.973 10.6529L139.964 7.65291L141.66 7.64777C142.177 7.6462 142.632 7.55959 143.023 7.38795C143.42 7.21629 143.729 6.97672 143.95 6.66923C144.171 6.35606 144.278 5.99778 144.271 5.59439C144.275 5.20233 144.18 4.85886 143.986 4.56399C143.798 4.26343 143.533 4.03128 143.191 3.86754C142.856 3.70378 142.466 3.62258 142.023 3.62392C141.557 3.62533 141.134 3.709 140.754 3.87493C140.38 4.04084 140.082 4.27469 139.861 4.5765C139.641 4.87831 139.525 5.22809 139.515 5.62585L135.484 5.63807C135.492 4.59827 135.779 3.68263 136.345 2.89113C136.911 2.09396 137.681 1.46946 138.657 1.01764C139.639 0.565794 140.757 0.337969 142.013 0.334162C143.263 0.330372 144.363 0.545788 145.313 0.980409C146.264 1.41503 147.004 2.00938 147.535 2.76345C148.065 3.51185 148.332 4.36048 148.335 5.30934C148.344 6.29227 148.025 7.1029 147.379 7.74122C146.739 8.37953 145.914 8.77408 144.903 8.92487L144.903 9.06123C146.256 9.21623 147.277 9.65063 147.967 10.3645C148.662 11.0783 149.009 11.9721 149.006 13.046C149.009 14.0573 148.714 14.956 148.12 15.7419C147.531 16.5221 146.709 17.1382 145.654 17.5902C144.604 18.0366 143.397 18.2619 142.033 18.266Z" fill="url(#paint0_linear_40_1605)"/>
<defs>
<linearGradient id="paint0_linear_40_1605" x1="74.9996" y1="-4.76949" x2="74.815" y2="35.2352" gradientUnits="userSpaceOnUse">
<stop offset="0.397282" stop-color="white"/>
<stop offset="1" stop-color="white" stop-opacity="0"/>
</linearGradient>
</defs>
</svg>
